<?xml version="1.0" encoding="UTF-8" standalone="no"?>
<svg
   xmlns:dc="http://purl.org/dc/elements/1.1/"
   xmlns:cc="http://creativecommons.org/ns#"
   xmlns:rdf="http://www.w3.org/1999/02/22-rdf-syntax-ns#"
   xmlns:svg="http://www.w3.org/2000/svg"
   xmlns="http://www.w3.org/2000/svg"
   xmlns:sodipodi="http://sodipodi.sourceforge.net/DTD/sodipodi-0.dtd"
   xmlns:inkscape="http://www.inkscape.org/namespaces/inkscape"
   width="90.597931"
   height="90.597931"
   viewBox="0 0 255.68748 255.68749"
   version="1.1"
   id="svg2"
   inkscape:version="0.48.2 r9819"
   sodipodi:docname="MUTCD RS-098.svg">
  <metadata
     id="metadata62">
    <rdf:RDF>
      <cc:Work
         rdf:about="">
        <dc:format>image/svg+xml</dc:format>
        <dc:type
           rdf:resource="http://purl.org/dc/dcmitype/StillImage" />
        <dc:title></dc:title>
      </cc:Work>
    </rdf:RDF>
  </metadata>
  <defs
     id="defs60">
    <clipPath
       clipPathUnits="userSpaceOnUse"
       id="clipPath3564">
      <path
         inkscape:connector-curvature="0"
         d="m 63,43 512.622,0 0,313.129 L 63,356.129 63,43 z"
         id="path3566" />
    </clipPath>
  </defs>
  <sodipodi:namedview
     pagecolor="#ffffff"
     bordercolor="#666666"
     borderopacity="1"
     objecttolerance="10"
     gridtolerance="10"
     guidetolerance="10"
     inkscape:pageopacity="0"
     inkscape:pageshadow="2"
     inkscape:window-width="1280"
     inkscape:window-height="1004"
     id="namedview58"
     showgrid="false"
     fit-margin-top="0"
     fit-margin-left="0"
     fit-margin-right="0"
     fit-margin-bottom="0"
     inkscape:zoom="4.8826954"
     inkscape:cx="83.159137"
     inkscape:cy="40.717393"
     inkscape:window-x="-8"
     inkscape:window-y="-8"
     inkscape:window-maximized="1"
     inkscape:current-layer="svg2"
     showguides="true"
     inkscape:guide-bbox="true" />
  <polygon
     points="315,545 235,375 315,205 395,375 "
     id="polygon10"
     style="fill:none;stroke:#ffffff;stroke-width:40"
     transform="translate(17744.427,14390.473)" />
  <!-- draw the bicycle -->
  <!-- RIGHT -->
  <!-- LANE -->
  <!-- ONLY -->
  <path
     inkscape:connector-curvature="0"
     d="m 22.004643,254.8459 211.663127,0 c 5.57392,0 11.02432,-2.2577 14.97189,-6.2088 3.94053,-3.937 6.1948,-9.3839 6.1948,-14.9578 l 0,-211.6632 c 0,-5.5738 -2.25426,-11.0207 -6.1948,-14.9718 -3.94757,-3.937 -9.39797,-6.1948 -14.97189,-6.1948 l -211.663127,0 c -5.57036,0 -11.02077,2.2578 -14.9577696,6.1948 -3.94759,3.9511 -6.20888999,9.398 -6.20888999,14.9718 l 0,211.6632 c 0,7.2566 3.85232999,14.1111 9.96243959,18.0058 3.48545,2.2154 7.16845,2.7375 11.20422,3.1608"
     style="fill:#ffffff;fill-opacity:1;fill-rule:nonzero;stroke:#000000;stroke-width:1.69333339;stroke-miterlimit:4;stroke-opacity:1;stroke-dasharray:none"
     id="path3026" />
  <path
     inkscape:connector-curvature="0"
     d="m 22.004643,249.5543 c -3.15383,0 -5.80672,-0.7091 -8.36083,-2.3284 -4.6249196,-2.9421 -7.5141696,-8.1385 -7.5141696,-13.5466 l 0,-211.6632 c 0,-4.1733 1.69334,-8.2691 4.6566696,-11.2324 2.94217,-2.9422 7.0485,-4.6426 11.21833,-4.6426 l 211.663127,0 c 4.18397,0 8.29028,1.6898 11.23245,4.6426 2.95277,2.9422 4.64255,7.0485 4.64255,11.2324 l 0,211.6632 c 0,4.1698 -1.70035,8.2761 -4.64255,11.2183 -2.96333,2.9633 -7.05555,4.6567 -11.23245,4.6567 l -211.663127,0 z"
     style="fill:#713907;fill-opacity:1;fill-rule:evenodd;stroke:none"
     id="path3050" />
  <path
     d="m 144.67416,19.315799 -15.49048,15.412861 15.49048,15.522222 -13.14098,0 -15.4693,-15.522222 15.4693,-15.412861 13.14098,0 z"
     style="fill:#ffffff;fill-opacity:1;fill-rule:nonzero;stroke:none"
     id="path8462"
     inkscape:connector-curvature="0" />
  <path
     d="m 111.09677,205.72357 15.49047,15.41287 -15.49047,15.51516 13.13392,0 15.47635,-15.51516 -15.47635,-15.41287 -13.13392,0 z"
     style="fill:#ffffff;fill-opacity:1;fill-rule:nonzero;stroke:none"
     id="path8466"
     inkscape:connector-curvature="0" />
  <path
     d="m 96.220132,157.4283 0.01411,9.58497 c 0,5.25639 -4.258028,9.49325 -9.500306,9.49325 -5.242278,0 -9.482666,-4.23686 -9.482666,-9.49325 l 0.01411,-9.58497 -9.637889,0 0,-31.07972 0,-0.0141 c 0,-6.78039 4.561417,-12.4707 10.784416,-14.18873 L 89.538521,85.736798 c 1.591028,-3.894667 5.415139,-6.628694 9.888361,-6.628694 l 56.885408,0 c 4.49087,0 8.30792,2.734027 9.91306,6.628694 l 11.09486,26.408942 c 6.24064,1.71803 10.80911,7.40834 10.80911,14.18873 l 0,0.0141 0,31.07972 -9.65905,0 0.0141,9.58497 c 0,5.25639 -4.24392,9.49325 -9.47561,9.49325 -5.25639,0 -9.4862,-4.23686 -9.4862,-9.49325 l 0,-9.58497 -63.302438,0 z m -9.719027,-19.54036 c 4.402666,0 7.948083,-3.56306 7.948083,-7.94456 0,-4.40266 -3.545417,-7.95161 -7.948083,-7.95161 -4.399139,0 -7.9375,3.54895 -7.9375,7.95161 0,4.3815 3.538361,7.94456 7.9375,7.94456 m 90.060635,-7.94456 c 0,-4.40266 -3.56306,-7.95161 -7.95161,-7.95161 -4.39561,0 -7.95161,3.54895 -7.95161,7.95161 0,4.3815 3.556,7.94456 7.95161,7.94456 4.38855,0 7.95161,-3.56306 7.95161,-7.94456 m -8.77006,-18.31975 -9.51794,-22.821193 c -0.39864,-1.157111 -1.52047,-1.989667 -2.8187,-1.989667 l -55.15327,0 c -1.308804,0 -2.42711,0.832556 -2.825749,1.989667 l -9.535583,22.821193 79.851242,0 z"
     style="fill:#ffffff;fill-opacity:1;fill-rule:nonzero;stroke:none"
     id="path8470"
     inkscape:connector-curvature="0" />
  <path
     d="m 213.40938,35.402465 c 0,3.77825 3.04094,6.7945 6.85094,6.7945 3.71828,0 6.80508,-3.01625 6.80508,-6.7945 0,-3.760611 -3.0868,-6.783916 -6.80508,-6.783916 -3.81,0 -6.85094,3.023305 -6.85094,6.783916"
     style="fill:#ffffff;fill-opacity:1;fill-rule:nonzero;stroke:none"
     id="path8474"
     inkscape:connector-curvature="0" />
  <path
     d="m 42.368605,220.21921 c 0,-3.76766 -3.026833,-6.78744 -6.850944,-6.78744 -3.711222,0 -6.790972,3.01978 -6.790972,6.78744 0,3.76767 3.07975,6.7945 6.790972,6.7945 3.824111,0 6.850944,-3.02683 6.850944,-6.7945"
     style="fill:#ffffff;fill-opacity:1;fill-rule:nonzero;stroke:none"
     id="path8478"
     inkscape:connector-curvature="0" />
  <path
     d="m 66.304577,227.72985 c 3.781778,0 6.7945,-3.03741 6.7945,-6.85447 0,-3.72181 -3.012722,-6.7945 -6.7945,-6.7945 -3.753555,0 -6.7945,3.07269 -6.7945,6.7945 0,3.81706 3.040945,6.85447 6.7945,6.85447"
     style="fill:#ffffff;fill-opacity:1;fill-rule:nonzero;stroke:none"
     id="path8482"
     inkscape:connector-curvature="0" />
  <path
     d="m 97.116541,227.85332 c 3.750029,0 6.787449,-3.03036 6.787449,-6.81566 0,-3.73945 -3.03742,-6.79803 -6.787449,-6.79803 -3.767667,0 -6.868583,3.05858 -6.868583,6.79803 0,3.7853 3.100916,6.81566 6.868583,6.81566"
     style="fill:#ffffff;fill-opacity:1;fill-rule:nonzero;stroke:none"
     id="path8486"
     inkscape:connector-curvature="0" />
  <path
     d="m 158.68649,227.85332 c 3.75708,0 6.7945,-3.03036 6.7945,-6.81566 0,-3.73945 -3.03742,-6.79803 -6.7945,-6.79803 -3.78178,0 -6.83331,3.05858 -6.83331,6.79803 0,3.7853 3.05153,6.81566 6.83331,6.81566"
     style="fill:#ffffff;fill-opacity:1;fill-rule:nonzero;stroke:none"
     id="path8490"
     inkscape:connector-curvature="0" />
  <path
     d="m 189.42402,227.85332 c 3.75708,0 6.83683,-3.03036 6.83683,-6.81566 0,-3.73945 -3.07975,-6.79803 -6.83683,-6.79803 -3.82412,0 -6.78392,3.05858 -6.78392,6.79803 0,3.7853 2.9598,6.81566 6.78392,6.81566"
     style="fill:#ffffff;fill-opacity:1;fill-rule:nonzero;stroke:none"
     id="path8494"
     inkscape:connector-curvature="0" />
  <path
     d="m 220.19717,227.77219 c 3.83117,0 6.82273,-3.04095 6.82273,-6.82978 0,-3.72886 -2.99156,-6.7945 -6.82273,-6.7945 -3.7465,0 -6.78744,3.06564 -6.78744,6.7945 0,3.78883 3.04094,6.82978 6.78744,6.82978"
     style="fill:#ffffff;fill-opacity:1;fill-rule:nonzero;stroke:none"
     id="path8498"
     inkscape:connector-curvature="0" />
  <path
     d="m 42.368605,189.31588 c 0,-3.77472 -3.026833,-6.79803 -6.850944,-6.79803 -3.711222,0 -6.790972,3.02331 -6.790972,6.79803 0,3.75708 3.07975,6.7945 6.790972,6.7945 3.824111,0 6.850944,-3.03742 6.850944,-6.7945"
     style="fill:#ffffff;fill-opacity:1;fill-rule:nonzero;stroke:none"
     id="path8502"
     inkscape:connector-curvature="0" />
  <path
     d="m 42.368605,158.34552 c 0,-3.75003 -3.026833,-6.78744 -6.80861,-6.78744 -3.753556,0 -6.808612,3.03741 -6.808612,6.78744 0,3.76767 3.055056,6.85447 6.808612,6.85447 3.781777,0 6.80861,-3.0868 6.80861,-6.85447"
     style="fill:#ffffff;fill-opacity:1;fill-rule:nonzero;stroke:none"
     id="path8506"
     inkscape:connector-curvature="0" />
  <path
     d="m 42.368605,127.39633 c 0,-3.71475 -3.026833,-6.7945 -6.80861,-6.7945 -3.753556,0 -6.808612,3.07975 -6.808612,6.7945 0,3.80294 3.055056,6.84036 6.808612,6.84036 3.781777,0 6.80861,-3.03742 6.80861,-6.84036"
     style="fill:#ffffff;fill-opacity:1;fill-rule:nonzero;stroke:none"
     id="path8510"
     inkscape:connector-curvature="0" />
  <path
     d="m 42.368605,96.443603 c 0,-3.753555 -3.026833,-6.787444 -6.80861,-6.787444 -3.753556,0 -6.808612,3.033889 -6.808612,6.787444 0,3.781777 3.055056,6.836837 6.808612,6.836837 3.781777,0 6.80861,-3.05506 6.80861,-6.836837"
     style="fill:#ffffff;fill-opacity:1;fill-rule:nonzero;stroke:none"
     id="path8514"
     inkscape:connector-curvature="0" />
  <path
     d="m 42.368605,65.526159 c 0,-3.753555 -3.026833,-6.833305 -6.80861,-6.833305 -3.753556,0 -6.808612,3.07975 -6.808612,6.833305 0,3.721806 3.055056,6.808611 6.808612,6.808611 3.781777,0 6.80861,-3.086805 6.80861,-6.808611"
     style="fill:#ffffff;fill-opacity:1;fill-rule:nonzero;stroke:none"
     id="path8518"
     inkscape:connector-curvature="0" />
  <path
     d="m 42.368605,34.584021 c 0,-3.824111 -3.026833,-6.815666 -6.822722,-6.815666 -3.718277,0 -6.7945,2.991555 -6.7945,6.815666 0,3.753555 3.076223,6.7945 6.7945,6.7945 3.795889,0 6.822722,-3.040945 6.822722,-6.7945"
     style="fill:#ffffff;fill-opacity:1;fill-rule:nonzero;stroke:none"
     id="path8522"
     inkscape:connector-curvature="0" />
  <path
     d="m 189.41696,27.768355 c -3.76767,0 -6.80508,3.033888 -6.80508,6.815666 0,3.7465 3.03741,6.808611 6.80508,6.808611 3.75708,0 6.85094,-3.062111 6.85094,-6.808611 0,-3.781778 -3.09386,-6.815666 -6.85094,-6.815666"
     style="fill:#ffffff;fill-opacity:1;fill-rule:nonzero;stroke:none"
     id="path8526"
     inkscape:connector-curvature="0" />
  <path
     d="m 158.64768,27.768355 c -3.7218,0 -6.80861,3.033888 -6.80861,6.815666 0,3.7465 3.08681,6.808611 6.80861,6.808611 3.79589,0 6.83331,-3.062111 6.83331,-6.808611 0,-3.781778 -3.03742,-6.815666 -6.83331,-6.815666"
     style="fill:#ffffff;fill-opacity:1;fill-rule:nonzero;stroke:none"
     id="path8530"
     inkscape:connector-curvature="0" />
  <path
     d="m 97.116541,27.768355 c -3.753556,0 -6.833306,3.033888 -6.833306,6.815666 0,3.7465 3.07975,6.808611 6.833306,6.808611 3.824109,0 6.801559,-3.062111 6.801559,-6.808611 0,-3.781778 -2.97745,-6.815666 -6.801559,-6.815666"
     style="fill:#ffffff;fill-opacity:1;fill-rule:nonzero;stroke:none"
     id="path8534"
     inkscape:connector-curvature="0" />
  <path
     d="m 66.339855,27.768355 c -3.750028,0 -6.836833,3.033888 -6.836833,6.815666 0,3.7465 3.086805,6.808611 6.836833,6.808611 3.831167,0 6.805083,-3.062111 6.805083,-6.808611 0,-3.781778 -2.973916,-6.815666 -6.805083,-6.815666"
     style="fill:#ffffff;fill-opacity:1;fill-rule:nonzero;stroke:none"
     id="path8538"
     inkscape:connector-curvature="0" />
  <path
     d="m 213.40938,66.298743 c 0,3.771194 3.04094,6.7945 6.85094,6.7945 3.71828,0 6.79097,-3.023306 6.79097,-6.7945 0,-3.760611 -3.07269,-6.801556 -6.79097,-6.801556 -3.81,0 -6.85094,3.040945 -6.85094,6.801556"
     style="fill:#ffffff;fill-opacity:1;fill-rule:nonzero;stroke:none"
     id="path8542"
     inkscape:connector-curvature="0" />
  <path
     d="m 213.40938,97.237353 c 0,3.718277 3.02683,6.787447 6.80861,6.787447 3.73239,0 6.80155,-3.06917 6.80155,-6.787447 0,-3.81 -3.06916,-6.836833 -6.80155,-6.836833 -3.78178,0 -6.80861,3.026833 -6.80861,6.836833"
     style="fill:#ffffff;fill-opacity:1;fill-rule:nonzero;stroke:none"
     id="path8546"
     inkscape:connector-curvature="0" />
  <path
     d="m 213.40938,128.12658 c 0,3.76061 3.02683,6.8333 6.80861,6.8333 3.73239,0 6.80155,-3.07269 6.80155,-6.8333 0,-3.71475 -3.06916,-6.7945 -6.80155,-6.7945 -3.78178,0 -6.80861,3.07975 -6.80861,6.7945"
     style="fill:#ffffff;fill-opacity:1;fill-rule:nonzero;stroke:none"
     id="path8550"
     inkscape:connector-curvature="0" />
  <path
     d="m 213.40938,159.11105 c 0,3.7465 3.02683,6.78744 6.80861,6.78744 3.73239,0 6.80155,-3.04094 6.80155,-6.78744 0,-3.78531 -3.06916,-6.84389 -6.80155,-6.84389 -3.78178,0 -6.80861,3.05858 -6.80861,6.84389"
     style="fill:#ffffff;fill-opacity:1;fill-rule:nonzero;stroke:none"
     id="path8554"
     inkscape:connector-curvature="0" />
  <path
     d="m 213.40938,190.00733 c 0,3.76766 3.02683,6.8333 6.80861,6.8333 3.73239,0 6.80155,-3.06564 6.80155,-6.8333 0,-3.71475 -3.06916,-6.80156 -6.80155,-6.80156 -3.78178,0 -6.80861,3.08681 -6.80861,6.80156"
     style="fill:#ffffff;fill-opacity:1;fill-rule:nonzero;stroke:none"
     id="path8558"
     inkscape:connector-curvature="0" />
</svg>
